<svg xmlns="http://www.w3.org/2000/svg" viewBox="0 0 64 64" role="img" aria-label="English Grammar Atlas favicon">
  <defs>
    <linearGradient id="bg" x1="10" y1="8" x2="54" y2="56" gradientUnits="userSpaceOnUse">
      <stop offset="0" stop-color="#214fbf" />
      <stop offset="0.58" stop-color="#1e6ba8" />
      <stop offset="1" stop-color="#0f766e" />
    </linearGradient>
    <linearGradient id="page" x1="17" y1="20" x2="47" y2="44" gradientUnits="userSpaceOnUse">
      <stop offset="0" stop-color="#fffdf8" />
      <stop offset="1" stop-color="#e8f1f3" />
    </linearGradient>
  </defs>

  <rect x="4" y="4" width="56" height="56" rx="16" fill="url(#bg)" />

  <path
    d="M20 18.5c-2.7 0-4.9 2.2-4.9 4.9V42c0 2.2 1.8 4 4 4h12.1c1.1 0 2.1.3 2.9.9 1-.6 2-.9 3.1-.9H49c.9 0 1.7-.8 1.7-1.7V23.4c0-2.7-2.2-4.9-4.9-4.9h-8.6c-1.9 0-3.7.8-5 2.1-1.3-1.3-3.1-2.1-5-2.1H20Z"
    fill="url(#page)"
  />

  <path
    d="M32 20.6v23"
    fill="none"
    stroke="#9fb3bd"
    stroke-linecap="round"
    stroke-width="1.7"
  />

  <path
    d="M21 25.6h7.4M21 30.4h7.4M21 35.2h5.6M35.6 25.6h7.4M35.6 30.4H43M35.6 35.2H43"
    fill="none"
    stroke="#6e8591"
    stroke-linecap="round"
    stroke-width="1.7"
  />

  <path
    d="M23.3 46.1c1.5-6.4 7-10.8 13.5-10.8 4.2 0 8.1 1.9 10.6 5.1"
    fill="none"
    stroke="#f2bf77"
    stroke-linecap="round"
    stroke-width="2.3"
  />

  <path
    d="M40.7 16.2a12.2 12.2 0 0 1 7 7"
    fill="none"
    stroke="#f6d8a6"
    stroke-linecap="round"
    stroke-width="2"
  />

  <circle cx="48.8" cy="15.8" r="2.3" fill="#dd6b20" />
</svg>
